<mxfile host="app.diagrams.net" modified="2021-06-22T10:26:07.707Z" agent="5.0 (Windows NT 10.0; Win64; x64) AppleWebKit/537.36 (KHTML, like Gecko) Chrome/91.0.4472.77 Safari/537.36" etag="ao99LYswHv7wSM5koWMZ" version="14.8.0" type="github">
  <diagram id="5n2btw-c0WX77iNK3rVv" name="Page-1">
    <mxGraphModel dx="1422" dy="882" grid="1" gridSize="10" guides="1" tooltips="1" connect="1" arrows="1" fold="1" page="1" pageScale="1" pageWidth="827" pageHeight="1169" math="0" shadow="0">
      <root>
        <mxCell id="0" />
        <mxCell id="1" parent="0" />
        <mxCell id="A_BkNFHgIpMCRZZli6fJ-1" value="" style="shape=cylinder3;whiteSpace=wrap;html=1;boundedLbl=1;backgroundOutline=1;size=15;fillColor=#dae8fc;strokeColor=#6c8ebf;" parent="1" vertex="1">
          <mxGeometry x="40" y="40" width="760" height="480" as="geometry" />
        </mxCell>
        <mxCell id="A_BkNFHgIpMCRZZli6fJ-8" value="" style="rounded=1;whiteSpace=wrap;html=1;arcSize=3;fillColor=#ffe6cc;strokeColor=#d79b00;" parent="1" vertex="1">
          <mxGeometry x="510" y="80" width="280" height="420" as="geometry" />
        </mxCell>
        <mxCell id="A_BkNFHgIpMCRZZli6fJ-2" value="&lt;b&gt;Product Resource Utility&lt;/b&gt;" style="text;html=1;strokeColor=none;fillColor=none;align=center;verticalAlign=middle;whiteSpace=wrap;rounded=0;" parent="1" vertex="1">
          <mxGeometry x="332.5" y="40" width="175" height="20" as="geometry" />
        </mxCell>
        <mxCell id="A_BkNFHgIpMCRZZli6fJ-3" value="" style="rounded=1;whiteSpace=wrap;html=1;arcSize=4;fillColor=#d5e8d4;strokeColor=#82b366;" parent="1" vertex="1">
          <mxGeometry x="50" y="80" width="210" height="250" as="geometry" />
        </mxCell>
        <mxCell id="A_BkNFHgIpMCRZZli6fJ-4" value="&lt;b&gt;Product Resource Provider&lt;/b&gt;" style="text;html=1;strokeColor=none;fillColor=none;align=center;verticalAlign=middle;whiteSpace=wrap;rounded=0;" parent="1" vertex="1">
          <mxGeometry x="50" y="80" width="160" height="20" as="geometry" />
        </mxCell>
        <mxCell id="A_BkNFHgIpMCRZZli6fJ-5" value="" style="rounded=1;whiteSpace=wrap;html=1;arcSize=3;fillColor=#e1d5e7;strokeColor=#9673a6;" parent="1" vertex="1">
          <mxGeometry x="50" y="340" width="450" height="160" as="geometry" />
        </mxCell>
        <mxCell id="A_BkNFHgIpMCRZZli6fJ-6" value="&lt;b&gt;Product Resource Model&lt;/b&gt;" style="text;html=1;strokeColor=none;fillColor=none;align=center;verticalAlign=middle;whiteSpace=wrap;rounded=0;" parent="1" vertex="1">
          <mxGeometry x="50" y="340" width="150" height="20" as="geometry" />
        </mxCell>
        <mxCell id="A_BkNFHgIpMCRZZli6fJ-7" value="" style="rounded=1;whiteSpace=wrap;html=1;arcSize=3;fillColor=#fff2cc;strokeColor=#d6b656;" parent="1" vertex="1">
          <mxGeometry x="270" y="80" width="230" height="250" as="geometry" />
        </mxCell>
        <mxCell id="A_BkNFHgIpMCRZZli6fJ-9" value="&lt;b&gt;Product Resource Resolver&lt;/b&gt;" style="text;html=1;strokeColor=none;fillColor=none;align=center;verticalAlign=middle;whiteSpace=wrap;rounded=0;" parent="1" vertex="1">
          <mxGeometry x="280" y="80" width="170" height="20" as="geometry" />
        </mxCell>
        <mxCell id="A_BkNFHgIpMCRZZli6fJ-10" value="&lt;b&gt;Product Resource Container&lt;/b&gt;" style="text;html=1;strokeColor=none;fillColor=none;align=center;verticalAlign=middle;whiteSpace=wrap;rounded=0;" parent="1" vertex="1">
          <mxGeometry x="510" y="80" width="180" height="20" as="geometry" />
        </mxCell>
        <mxCell id="A_BkNFHgIpMCRZZli6fJ-11" value="ItemCase Model" style="rounded=1;whiteSpace=wrap;html=1;fillColor=#f5f5f5;strokeColor=#666666;fontColor=#333333;" parent="1" vertex="1">
          <mxGeometry x="60" y="370" width="110" height="30" as="geometry" />
        </mxCell>
        <mxCell id="A_BkNFHgIpMCRZZli6fJ-13" value="Warehouse Model" style="rounded=1;whiteSpace=wrap;html=1;fillColor=#f5f5f5;strokeColor=#666666;fontColor=#333333;" parent="1" vertex="1">
          <mxGeometry x="60" y="410" width="120" height="30" as="geometry" />
        </mxCell>
        <mxCell id="A_BkNFHgIpMCRZZli6fJ-14" value="Division Model" style="rounded=1;whiteSpace=wrap;html=1;fillColor=#f5f5f5;strokeColor=#666666;fontColor=#333333;" parent="1" vertex="1">
          <mxGeometry x="180" y="370" width="100" height="30" as="geometry" />
        </mxCell>
        <mxCell id="A_BkNFHgIpMCRZZli6fJ-15" value="Store Model" style="rounded=1;whiteSpace=wrap;html=1;fillColor=#f5f5f5;strokeColor=#666666;fontColor=#333333;" parent="1" vertex="1">
          <mxGeometry x="190" y="410" width="81" height="30" as="geometry" />
        </mxCell>
        <mxCell id="A_BkNFHgIpMCRZZli6fJ-21" value="&lt;b&gt;...&lt;/b&gt;" style="text;html=1;strokeColor=none;fillColor=none;align=center;verticalAlign=middle;whiteSpace=wrap;rounded=0;" parent="1" vertex="1">
          <mxGeometry x="60" y="450" width="40" height="20" as="geometry" />
        </mxCell>
        <mxCell id="A_BkNFHgIpMCRZZli6fJ-22" value="ItemCase Resolver" style="rounded=1;whiteSpace=wrap;html=1;fillColor=#f5f5f5;strokeColor=#666666;fontColor=#333333;" parent="1" vertex="1">
          <mxGeometry x="280" y="110" width="110" height="30" as="geometry" />
        </mxCell>
        <mxCell id="A_BkNFHgIpMCRZZli6fJ-23" value="Location Resolver" style="rounded=1;whiteSpace=wrap;html=1;fillColor=#f5f5f5;strokeColor=#666666;fontColor=#333333;" parent="1" vertex="1">
          <mxGeometry x="280" y="150" width="110" height="30" as="geometry" />
        </mxCell>
        <mxCell id="A_BkNFHgIpMCRZZli6fJ-24" value="Product Offering Resolver" style="rounded=1;whiteSpace=wrap;html=1;fillColor=#f5f5f5;strokeColor=#666666;fontColor=#333333;" parent="1" vertex="1">
          <mxGeometry x="280" y="190" width="150" height="30" as="geometry" />
        </mxCell>
        <mxCell id="A_BkNFHgIpMCRZZli6fJ-25" value="&lt;b&gt;...&lt;/b&gt;" style="text;html=1;strokeColor=none;fillColor=none;align=center;verticalAlign=middle;whiteSpace=wrap;rounded=0;" parent="1" vertex="1">
          <mxGeometry x="280" y="230" width="40" height="20" as="geometry" />
        </mxCell>
        <mxCell id="A_BkNFHgIpMCRZZli6fJ-33" value="" style="group" parent="1" vertex="1" connectable="0">
          <mxGeometry x="520" y="120" width="260" height="180" as="geometry" />
        </mxCell>
        <mxCell id="A_BkNFHgIpMCRZZli6fJ-27" value="" style="rounded=1;whiteSpace=wrap;html=1;arcSize=3;fillColor=#d5e8d4;strokeColor=#82b366;" parent="A_BkNFHgIpMCRZZli6fJ-33" vertex="1">
          <mxGeometry width="260" height="180" as="geometry" />
        </mxCell>
        <mxCell id="A_BkNFHgIpMCRZZli6fJ-28" value="List&amp;lt;ItemCaseModel&amp;gt;" style="rounded=1;whiteSpace=wrap;html=1;fillColor=#f5f5f5;strokeColor=#666666;fontColor=#333333;" parent="A_BkNFHgIpMCRZZli6fJ-33" vertex="1">
          <mxGeometry x="10" y="20" width="195" height="40" as="geometry" />
        </mxCell>
        <mxCell id="A_BkNFHgIpMCRZZli6fJ-31" value="&lt;b&gt;Resource Instance ID&amp;nbsp;&lt;/b&gt;" style="text;html=1;strokeColor=none;fillColor=none;align=center;verticalAlign=middle;whiteSpace=wrap;rounded=0;" parent="A_BkNFHgIpMCRZZli6fJ-33" vertex="1">
          <mxGeometry width="130" height="20" as="geometry" />
        </mxCell>
        <mxCell id="A_BkNFHgIpMCRZZli6fJ-32" value="&lt;b&gt;...&lt;/b&gt;" style="text;html=1;strokeColor=none;fillColor=none;align=center;verticalAlign=middle;whiteSpace=wrap;rounded=0;" parent="A_BkNFHgIpMCRZZli6fJ-33" vertex="1">
          <mxGeometry x="210" y="150" width="40" height="20" as="geometry" />
        </mxCell>
        <mxCell id="TJgs7zTTfnU_iBwVlpYI-8" value="List&amp;lt;DivisionModel&amp;gt;" style="rounded=1;whiteSpace=wrap;html=1;fillColor=#f5f5f5;strokeColor=#666666;fontColor=#333333;" vertex="1" parent="A_BkNFHgIpMCRZZli6fJ-33">
          <mxGeometry x="10" y="70" width="195" height="40" as="geometry" />
        </mxCell>
        <mxCell id="TJgs7zTTfnU_iBwVlpYI-9" value="List&amp;lt;ItemCaseXLocationModel&amp;gt;" style="rounded=1;whiteSpace=wrap;html=1;fillColor=#f5f5f5;strokeColor=#666666;fontColor=#333333;" vertex="1" parent="A_BkNFHgIpMCRZZli6fJ-33">
          <mxGeometry x="10" y="120" width="195" height="40" as="geometry" />
        </mxCell>
        <mxCell id="A_BkNFHgIpMCRZZli6fJ-48" value="Init()" style="rounded=1;whiteSpace=wrap;html=1;fillColor=#f5f5f5;strokeColor=#666666;fontColor=#333333;" parent="1" vertex="1">
          <mxGeometry x="60" y="110" width="80" height="30" as="geometry" />
        </mxCell>
        <mxCell id="A_BkNFHgIpMCRZZli6fJ-52" value="&lt;b&gt;...&lt;/b&gt;" style="text;html=1;strokeColor=none;fillColor=none;align=center;verticalAlign=middle;whiteSpace=wrap;rounded=0;" parent="1" vertex="1">
          <mxGeometry x="60" y="150" width="40" height="20" as="geometry" />
        </mxCell>
        <mxCell id="TJgs7zTTfnU_iBwVlpYI-1" value="" style="rounded=1;whiteSpace=wrap;html=1;arcSize=5;fillColor=#ffe6cc;strokeColor=#d79b00;" vertex="1" parent="1">
          <mxGeometry x="60" y="180" width="190" height="140" as="geometry" />
        </mxCell>
        <mxCell id="TJgs7zTTfnU_iBwVlpYI-2" value="&lt;b&gt;Product Resource API&lt;/b&gt;" style="text;html=1;strokeColor=none;fillColor=none;align=center;verticalAlign=middle;whiteSpace=wrap;rounded=0;" vertex="1" parent="1">
          <mxGeometry x="60" y="180" width="130" height="20" as="geometry" />
        </mxCell>
        <mxCell id="TJgs7zTTfnU_iBwVlpYI-4" value="getDivisionIdXItemCaseIds" style="rounded=1;whiteSpace=wrap;html=1;fillColor=#f5f5f5;strokeColor=#666666;fontColor=#333333;" vertex="1" parent="1">
          <mxGeometry x="70" y="200" width="170" height="30" as="geometry" />
        </mxCell>
        <mxCell id="TJgs7zTTfnU_iBwVlpYI-5" value="getWarehouseIdXItemCaseIds" style="rounded=1;whiteSpace=wrap;html=1;fillColor=#f5f5f5;strokeColor=#666666;fontColor=#333333;" vertex="1" parent="1">
          <mxGeometry x="70" y="235" width="170" height="30" as="geometry" />
        </mxCell>
        <mxCell id="TJgs7zTTfnU_iBwVlpYI-6" value="getStoreIdXItemCaseIds" style="rounded=1;whiteSpace=wrap;html=1;fillColor=#f5f5f5;strokeColor=#666666;fontColor=#333333;" vertex="1" parent="1">
          <mxGeometry x="70" y="270" width="170" height="30" as="geometry" />
        </mxCell>
        <mxCell id="TJgs7zTTfnU_iBwVlpYI-7" value="&lt;b&gt;...&lt;/b&gt;" style="text;html=1;strokeColor=none;fillColor=none;align=center;verticalAlign=middle;whiteSpace=wrap;rounded=0;" vertex="1" parent="1">
          <mxGeometry x="70" y="300" width="40" height="20" as="geometry" />
        </mxCell>
        <mxCell id="TJgs7zTTfnU_iBwVlpYI-10" value="" style="group" vertex="1" connectable="0" parent="1">
          <mxGeometry x="520" y="310" width="260" height="180" as="geometry" />
        </mxCell>
        <mxCell id="TJgs7zTTfnU_iBwVlpYI-11" value="" style="rounded=1;whiteSpace=wrap;html=1;arcSize=3;fillColor=#d5e8d4;strokeColor=#82b366;" vertex="1" parent="TJgs7zTTfnU_iBwVlpYI-10">
          <mxGeometry width="260" height="180" as="geometry" />
        </mxCell>
        <mxCell id="TJgs7zTTfnU_iBwVlpYI-12" value="List&amp;lt;ItemCaseModel&amp;gt;" style="rounded=1;whiteSpace=wrap;html=1;fillColor=#f5f5f5;strokeColor=#666666;fontColor=#333333;" vertex="1" parent="TJgs7zTTfnU_iBwVlpYI-10">
          <mxGeometry x="10" y="20" width="195" height="40" as="geometry" />
        </mxCell>
        <mxCell id="TJgs7zTTfnU_iBwVlpYI-13" value="&lt;b&gt;Resource Instance ID&amp;nbsp;&lt;/b&gt;" style="text;html=1;strokeColor=none;fillColor=none;align=center;verticalAlign=middle;whiteSpace=wrap;rounded=0;" vertex="1" parent="TJgs7zTTfnU_iBwVlpYI-10">
          <mxGeometry width="130" height="20" as="geometry" />
        </mxCell>
        <mxCell id="TJgs7zTTfnU_iBwVlpYI-14" value="&lt;b&gt;...&lt;/b&gt;" style="text;html=1;strokeColor=none;fillColor=none;align=center;verticalAlign=middle;whiteSpace=wrap;rounded=0;" vertex="1" parent="TJgs7zTTfnU_iBwVlpYI-10">
          <mxGeometry x="210" y="150" width="40" height="20" as="geometry" />
        </mxCell>
        <mxCell id="TJgs7zTTfnU_iBwVlpYI-15" value="List&amp;lt;DivisionModel&amp;gt;" style="rounded=1;whiteSpace=wrap;html=1;fillColor=#f5f5f5;strokeColor=#666666;fontColor=#333333;" vertex="1" parent="TJgs7zTTfnU_iBwVlpYI-10">
          <mxGeometry x="10" y="70" width="195" height="40" as="geometry" />
        </mxCell>
        <mxCell id="TJgs7zTTfnU_iBwVlpYI-16" value="List&amp;lt;ItemCaseXLocationModel&amp;gt;" style="rounded=1;whiteSpace=wrap;html=1;fillColor=#f5f5f5;strokeColor=#666666;fontColor=#333333;" vertex="1" parent="TJgs7zTTfnU_iBwVlpYI-10">
          <mxGeometry x="10" y="120" width="195" height="40" as="geometry" />
        </mxCell>
      </root>
    </mxGraphModel>
  </diagram>
</mxfile>
